<?xml version="1.0" encoding="UTF-8" standalone="no"?><!DOCTYPE svg PUBLIC "-//W3C//DTD SVG 1.1//EN" "http://www.w3.org/Graphics/SVG/1.1/DTD/svg11.dtd"><svg width="100%" height="100%" viewBox="0 0 168 56" version="1.1" xmlns="http://www.w3.org/2000/svg" xmlns:xlink="http://www.w3.org/1999/xlink" xml:space="preserve" xmlns:serif="http://www.serif.com/" style="fill-rule:evenodd;clip-rule:evenodd;stroke-linejoin:round;stroke-miterlimit:2;"><g><text x="40.524px" y="46.289px" style="font-family:'Archivo-Bold', 'Archivo', sans-serif;font-weight:700;font-size:13.988px;fill:#fdc743;">C<tspan x="50.347px 60.932px 70.755px 79.83px 83.612px 93.435px 103.258px 113.081px 121.394px 129.707px 138.782px 148.605px 159.19px " y="46.289px 46.289px 46.289px 46.289px 46.289px 46.289px 46.289px 46.289px 46.289px 46.289px 46.289px 46.289px 46.289px ">ODE CHALLENGE</tspan></text></g><g><path d="M18.952,33.452l-0,-20.831c-0,-0.281 0.081,-0.332 0.346,-0.25c1.198,0.348 2.401,0.66 3.593,1.023c0.167,0.089 0.28,0.256 0.301,0.445c0.027,4.511 0.041,9.02 0.041,13.527l-0,8.393c-0,1.483 -0.067,2.961 -0.067,4.439c0,2.046 0,4.091 0.046,6.168c0,0.041 0.184,0.138 0.219,0.112c0.535,-0.363 1.07,-0.736 1.59,-1.125c0.096,-0.084 0.153,-0.205 0.158,-0.332l0,-30.528c0,-0.301 0,-0.475 0.413,-0.347c1.182,0.363 2.385,0.664 3.567,1.022c0.15,0.091 0.251,0.246 0.275,0.42c0.022,0.279 0.022,0.559 0,0.839l0,25.044c0.014,0.085 0.04,0.168 0.077,0.246c0.064,-0.052 0.125,-0.106 0.183,-0.164c0.783,-0.89 1.329,-1.965 1.585,-3.125c0.084,-0.405 0.122,-0.818 0.112,-1.232l0,-20.969c0,-0.337 0.122,-0.368 0.408,-0.281c0.943,0.276 1.896,0.511 2.843,0.792c0.264,0.048 0.523,0.119 0.775,0.21c0.116,0.092 0.187,0.23 0.194,0.379l-0,7.318c-0,4.322 -0,8.649 -0.031,12.97c-0.036,0.889 -0.207,1.767 -0.51,2.603c-0.299,0.969 -0.724,1.894 -1.263,2.752c-0.674,1.065 -1.49,2.032 -2.426,2.874c-1.529,1.309 -3.236,2.445 -4.887,3.616c-1.768,1.258 -3.567,2.486 -5.351,3.723c-0.657,0.455 -1.32,0.911 -1.987,1.345c-0.026,0 -0.235,-0.122 -0.235,-0.189l0,-20.892" style="fill:#d3d2d2;fill-rule:nonzero;"/><path d="M16.74,54.794l0,-1.329l0,0.92c-0.006,0.072 -0.041,0.139 -0.097,0.184c-0.059,0.029 -0.129,0.029 -0.188,0l-4.536,-3.15c-1.625,-1.13 -3.261,-2.256 -4.876,-3.401c-0.882,-0.624 -1.774,-1.243 -2.599,-1.933c-0.59,-0.486 -1.115,-1.044 -1.565,-1.663c-0.744,-1.029 -1.425,-2.103 -2.038,-3.217c-0.533,-1.016 -0.808,-2.149 -0.8,-3.298c-0.026,-6.7 -0.031,-13.405 -0.041,-20.105c0,-0.844 0,-0.833 0.815,-1.053c1.529,-0.415 3.027,-0.854 4.541,-1.274c1.019,-0.286 2.074,-0.557 3.103,-0.849c1.223,-0.348 2.446,-0.721 3.669,-1.069c1.223,-0.347 2.431,-0.675 3.649,-1.022c0.225,-0.048 0.446,-0.112 0.663,-0.19c0.244,-0.107 0.3,0 0.3,0.21l0,2.971c0,1.023 -0.035,2.072 0,3.105c0.026,0.552 -0.356,0.511 -0.672,0.629c-1.101,0.322 -2.202,0.634 -3.313,0.926c-0.071,-0 -0.285,-0.179 -0.29,-0.282c-0.031,-0.562 -0,-1.125 -0.026,-1.682c0,-0.067 -0.178,-0.205 -0.244,-0.19c-0.714,0.185 -1.417,0.394 -2.125,0.594l-2.982,0.823c-0.687,0.194 -1.375,0.399 -2.063,0.598c-0.126,0.012 -0.25,0.041 -0.367,0.087c-0.138,0.098 -0.347,0.241 -0.347,0.369c-0.025,1.498 0,3.002 0,4.5l0,12.459c0.034,0.939 0.302,1.856 0.78,2.664c0.614,1.199 1.484,2.247 2.548,3.069c1.192,0.905 2.431,1.744 3.649,2.608c0.321,0.23 0.642,0.455 0.968,0.675c0.053,0.039 0.119,0.054 0.183,0.041c0.036,0 0.056,-0.107 0.056,-0.169c0,-4.505 0,2.532 0,-1.974c0.041,-0.192 0.172,-0.352 0.352,-0.429c0.846,-0.271 1.702,-0.512 2.548,-0.742c0.357,-0.102 0.713,-0.204 1.075,-0.291c0.071,0.004 0.135,0.044 0.168,0.107c0.06,0.288 0.096,0.581 0.107,0.875l0,10.965" style="fill:#a2a1a1;fill-rule:nonzero;"/><path d="M35.672,11.558c-0.027,-0.169 -0.136,-0.313 -0.291,-0.384c-5.751,-1.657 -11.503,-3.302 -17.255,-4.935c-0.093,-0.025 -0.189,-0.035 -0.285,-0.031l-0,4.48c0.113,-0.013 0.228,-0.013 0.341,0c1.463,0.302 2.885,0.798 4.327,1.207c1.228,0.348 2.456,0.68 3.684,1.023c1.228,0.343 2.385,0.696 3.567,1.023l3.221,0.961c0.821,0.231 1.641,0.456 2.461,0.67c0.062,0 0.225,-0.097 0.225,-0.153l-0,-3.851" style="fill:#6c6969;fill-rule:nonzero;"/><path d="M17.607,6.239c-1.02,0.276 -2.039,0.573 -3.033,0.859c-4.79,1.35 -9.563,2.702 -14.319,4.056c-0.123,0.06 -0.208,0.176 -0.23,0.312l0,3.856c0,0.296 0.128,0.332 0.372,0.245c0.245,-0.087 0.643,-0.199 0.964,-0.291l3.628,-1.023l3.058,-0.88c1.049,-0.296 2.104,-0.583 3.149,-0.879c1.045,-0.297 1.946,-0.578 2.925,-0.854c0.744,-0.215 1.488,-0.43 2.242,-0.609c0.481,-0.157 0.976,-0.269 1.478,-0.333l-0,-4.49c-0.079,0.001 -0.158,0.011 -0.234,0.031" style="fill:#a2a1a1;fill-rule:nonzero;"/></g><g><path d="M47.895,19.972l-0,-0.377c-0,-2.078 -0.729,-3.127 -2.104,-3.127c-0.677,-0.052 -1.326,0.293 -1.662,0.883c-0.352,0.594 -0.428,1.132 -0.428,2.589l-0,5.991c-0.06,0.902 0.039,1.806 0.294,2.673c0.296,0.717 1.008,1.179 1.784,1.157c1.023,0 1.7,-0.594 1.995,-1.777c0.132,-0.721 0.185,-1.454 0.159,-2.187l2.807,0l0,0.639c0,3.914 -1.701,5.966 -4.936,5.966c-1.809,-0 -3.235,-0.703 -4.022,-1.995c-0.658,-1.125 -0.85,-2.18 -0.85,-4.821l0,-5.045c0,-2.858 0.217,-3.836 1.055,-4.993c0.926,-1.153 2.362,-1.779 3.836,-1.675c3.076,-0 4.885,2.052 4.885,5.588l0,0.537l-2.813,-0.026Z" style="fill:#d3d2d2;fill-rule:nonzero;"/><path d="M61.111,27.472c0,2.104 -0.243,3.025 -1.055,3.837c-0.836,0.744 -1.931,1.133 -3.05,1.08c-1.126,0.057 -2.231,-0.332 -3.075,-1.08c-0.78,-0.812 -1.055,-1.727 -1.055,-3.837l-0,-4.13c-0,-2.104 0.268,-3.024 1.055,-3.836c0.844,-0.749 1.949,-1.137 3.075,-1.081c1.119,-0.052 2.214,0.336 3.05,1.081c0.812,0.805 1.055,1.726 1.055,3.836l0,4.13Zm-5.722,0.16c-0,1.701 0.486,2.455 1.592,2.455c1.106,0 1.617,-0.754 1.617,-2.455l0,-4.476c0,-1.726 -0.486,-2.455 -1.617,-2.455c-1.132,0 -1.592,0.755 -1.592,2.455l-0,4.476Z" style="fill:#d3d2d2;fill-rule:nonzero;"/><path d="M68.937,32.114l0,-1.323c-1.106,1.055 -1.995,1.509 -2.967,1.509c-0.93,0.023 -1.787,-0.522 -2.161,-1.375c-0.402,-0.914 -0.537,-1.861 -0.537,-3.913l0,-3.197c0,-2.052 0.135,-2.992 0.537,-3.913c0.374,-0.853 1.231,-1.398 2.161,-1.375c0.972,0 1.861,0.461 2.967,1.509l0,-5.908l2.507,0l-0,17.999l-2.507,-0.013Zm0,-10.716c-0.493,-0.413 -1.109,-0.649 -1.752,-0.671c-0.49,-0.016 -0.945,0.261 -1.157,0.703c-0.217,0.46 -0.243,0.812 -0.243,2.212l0,3.536c0,1.4 0,1.752 0.243,2.212c0.212,0.443 0.667,0.719 1.157,0.704c0.643,-0.023 1.259,-0.259 1.752,-0.672l0,-8.024Z" style="fill:#d3d2d2;fill-rule:nonzero;"/><path d="M76.22,25.823l-0,1.189c-0,2.346 0.403,3.075 1.701,3.075c0.711,0.051 1.358,-0.434 1.509,-1.131c0.106,-0.487 0.143,-0.987 0.108,-1.484l2.513,0c0,1.835 -0.109,2.43 -0.511,3.101c-0.64,1.19 -1.919,1.81 -3.613,1.81c-1.541,-0 -2.698,-0.486 -3.376,-1.4c-0.678,-0.915 -0.838,-1.836 -0.838,-3.645l0,-3.996c0,-2.129 0.243,-3.024 1.081,-3.836c0.836,-0.745 1.931,-1.133 3.05,-1.081c1.184,-0.075 2.342,0.38 3.158,1.24c0.755,0.864 1.023,1.835 1.023,3.939l0,2.212l-5.805,0.007Zm3.293,-2.941c-0,-1.593 -0.486,-2.238 -1.644,-2.238c-1.157,-0 -1.643,0.639 -1.643,2.238l0,0.728l3.293,0l-0.006,-0.728Z" style="fill:#d3d2d2;fill-rule:nonzero;"/><path d="M94.142,32.114l-2.321,-12.199l-2.187,12.199l-2.589,0l-3.376,-17.998l2.698,-0l2.052,11.604l2.155,-11.604l2.404,-0l2.372,11.604l1.81,-11.604l2.615,-0l-3.044,17.998l-2.589,0Z" style="fill:#d3d2d2;fill-rule:nonzero;"/><path d="M104.231,16.731l-2.487,-0l0,-2.615l2.487,-0l0,2.615Zm0,15.377l-2.487,-0l0,-13.427l2.487,-0l0,13.427Z" style="fill:#d3d2d2;fill-rule:nonzero;"/><path d="M114.187,32.114l-7.961,0l0,-2.513l5.071,-8.471l-4.642,-0l-0,-2.43l7.532,-0l-0,2.513l-5.077,8.472l5.077,-0l-0,2.429Z" style="fill:#d3d2d2;fill-rule:nonzero;"/><path d="M121.981,32.114c-0.158,-0.506 -0.232,-1.036 -0.218,-1.566c-1.215,1.323 -1.918,1.752 -3.024,1.752c-1.701,-0 -2.724,-1.349 -2.724,-3.562c0,-1.675 0.64,-2.724 2.187,-3.695c1.14,-0.661 2.331,-1.23 3.561,-1.701l0,-0.703c0,-1.375 -0.377,-1.919 -1.323,-1.919c-0.947,0 -1.375,0.569 -1.484,1.919l-2.64,-0c0.217,-2.699 1.784,-4.131 4.475,-4.131c1.023,-0.087 2.033,0.289 2.75,1.023c0.569,0.703 0.729,1.324 0.729,2.967l-0,5.965c-0.072,1.223 0.027,2.45 0.294,3.645l-2.583,0.006Zm-0.218,-6.905c-2.212,1.189 -3.101,2.129 -3.101,3.369c-0.006,0.052 -0.009,0.104 -0.009,0.156c0,0.718 0.571,1.317 1.288,1.353c0.782,-0.052 1.481,-0.515 1.835,-1.214l-0.013,-3.664Z" style="fill:#d3d2d2;fill-rule:nonzero;"/><path d="M129.372,18.7l-0,2.321c0.678,-1.784 1.643,-2.513 3.197,-2.513l-0,2.916c-0.384,-0.164 -0.798,-0.247 -1.215,-0.243c-0.604,-0.032 -1.188,0.23 -1.566,0.703c-0.352,0.46 -0.429,0.889 -0.429,2.161l0,8.069l-2.493,0l-0,-13.427l2.506,0.013Z" style="fill:#d3d2d2;fill-rule:nonzero;"/><path d="M139.788,32.114l-0,-1.323c-1.107,1.055 -1.995,1.509 -2.967,1.509c-0.929,0.021 -1.783,-0.524 -2.155,-1.375c-0.403,-0.914 -0.537,-1.861 -0.537,-3.913l0,-3.197c0,-2.052 0.134,-2.992 0.537,-3.913c0.373,-0.853 1.23,-1.398 2.161,-1.375c0.972,0 1.861,0.461 2.967,1.509l-0,-5.908l2.506,0l0,17.999l-2.512,-0.013Zm-0,-10.716c-0.493,-0.413 -1.11,-0.649 -1.752,-0.671c-0.493,-0.018 -0.951,0.259 -1.164,0.703c-0.217,0.46 -0.243,0.812 -0.243,2.212l0,3.536c0,1.4 0,1.752 0.243,2.212c0.213,0.445 0.671,0.722 1.164,0.704c0.643,-0.024 1.26,-0.263 1.752,-0.678l-0,-8.018Z" style="fill:#d3d2d2;fill-rule:nonzero;"/><path d="M150.203,22.671c-0.511,-1.401 -1.106,-1.919 -2.078,-1.919c-0.04,-0.004 -0.081,-0.006 -0.121,-0.006c-0.657,0 -1.199,0.539 -1.202,1.196c-0,0.729 0.377,1.106 2.263,2.129c0.996,0.469 1.915,1.088 2.724,1.835c0.631,0.699 0.97,1.615 0.946,2.557c0,2.379 -1.643,3.965 -4.13,3.965c-2.296,-0 -3.722,-1.19 -4.585,-3.779l2.347,-0.806c0.537,1.643 1.189,2.296 2.238,2.296c0.03,0.002 0.059,0.003 0.089,0.003c0.737,-0 1.343,-0.607 1.343,-1.343c-0,-0.003 -0,-0.006 -0,-0.01c-0,-0.754 -0.428,-1.24 -1.918,-2.026c-1.835,-1.023 -2.347,-1.375 -2.941,-1.995c-0.624,-0.692 -0.97,-1.591 -0.97,-2.522c0,-2.066 1.701,-3.766 3.766,-3.766c0.049,-0 0.097,0.001 0.145,0.003c2.135,-0 3.51,1.023 4.341,3.241l-2.257,0.947Z" style="fill:#d3d2d2;fill-rule:nonzero;"/><path d="M155.747,27.351l-0,4.763l-1.669,0l-0,-10.799l1.669,0l-0,4.501l2.378,0l0,-4.501l1.669,0l-0,10.799l-1.669,0l0,-4.763l-2.378,-0Z" style="fill:#a2a1a1;fill-rule:nonzero;"/><path d="M167.69,32.907c-0.782,0.058 -1.543,-0.284 -2.02,-0.908c-0.457,0.186 -0.946,0.279 -1.439,0.275c-0.889,0.05 -1.749,-0.337 -2.301,-1.036c-0.49,-0.758 -0.715,-1.658 -0.64,-2.557l0,-3.932c-0.073,-0.9 0.152,-1.799 0.64,-2.558c0.595,-0.659 1.442,-1.036 2.33,-1.036c0.888,-0 1.736,0.377 2.331,1.036c0.488,0.759 0.712,1.658 0.639,2.558l0,3.932c0.056,0.761 -0.083,1.525 -0.403,2.218c0.204,0.288 0.536,0.458 0.889,0.454l-0.026,1.554Zm-4.712,-4.258c-0.055,0.5 0.017,1.006 0.211,1.47c0.236,0.359 0.638,0.575 1.068,0.575c0.429,0 0.831,-0.216 1.068,-0.575c0.201,-0.462 0.274,-0.97 0.211,-1.47l-0,-3.837c0.064,-0.502 -0.009,-1.012 -0.211,-1.477c-0.237,-0.358 -0.639,-0.575 -1.068,-0.575c-0.43,0 -0.832,0.217 -1.068,0.575c-0.194,0.467 -0.267,0.975 -0.211,1.477l0,3.837Z" style="fill:#a2a1a1;fill-rule:nonzero;"/></g></svg>